#N canvas 827 239 527 327 12;
#X declare -path dep;
#X obj 339 1053 dac~;
#X obj 339 858 *~;
#X obj 339 976 +~;
#X obj 441 620 clip 0 1;
#X msg 538 713 \$1 100;
#X obj 538 733 line~;
#X obj 441 600 r \$0-mix;
#X obj 409 933 *~;
#N canvas 0 22 250 374 mix 0;
#X obj 50 80 * 2;
#X obj 50 110 - 1;
#X obj 50 140 t f f;
#X obj 101 200 + 1;
#X msg 50 170 1 \$1;
#X obj 50 200 -;
#X obj 101 230 * 0.5;
#X obj 50 230 * 0.5;
#X obj 50 320 outlet;
#X obj 101 320 outlet;
#X obj 50 50 inlet;
#X connect 0 0 1 0;
#X connect 1 0 2 0;
#X connect 2 0 4 0;
#X connect 2 1 3 0;
#X connect 3 0 6 0;
#X connect 4 0 5 0;
#X connect 5 0 7 0;
#X connect 6 0 9 0;
#X connect 7 0 8 0;
#X connect 10 0 0 0;
#X restore 441 640 pd mix;
#X msg 441 713 \$1 100;
#X obj 441 733 line~;
#X obj 664 289 vsl 17 128 0 1 0 0 empty empty empty 0 -9 0 10 #191919 #ffffff #ffffff 0 1;
#X obj 659 438 s \$0-mix;
#X obj 219 167 adc~;
#X obj 659 229 r Mix @hv_param 0 100 50;
#X obj 444 293 hsl 128 16 2 512 1 0 empty empty STEPS -2 -6 0 12 #7c7c7c #fcfcfc #808080 0 1;
#X obj 659 258 / 100;
#X obj 519 858 *~;
#X obj 519 976 +~;
#X obj 589 933 *~;
#X obj 17 322 throw~ CleanL;
#X obj 219 509 throw~ DirtyL;
#X obj 151 322 throw~ CleanR;
#X obj 327 509 throw~ DirtyR;
#X obj 339 673 catch~ CleanL;
#X obj 519 673 catch~ CleanR;
#X obj 409 823 catch~ DirtyL;
#X obj 589 823 catch~ DirtyR;
#X obj 441 259 r Crshr @hv_param 2 512 512 int;
#X obj 441 80 loadbang;
#X msg 441 179 512;
#X msg 499 179 50;
#X obj 441 109 bng 25 250 50 0 empty empty empty 17 7 0 10 #191919 #ffffff #ffffff;
#X obj 669 79 declare -path dep;
#X obj 219 443 wstd.cmpnnts/crshr~;
#X obj 327 469 wstd.cmpnnts/crshr~;
#X obj 441 389 line~;
#X msg 441 360 \$1 20;
#X obj 441 329 max 2;
#X connect 1 0 2 0;
#X connect 2 0 0 0;
#X connect 3 0 8 0;
#X connect 4 0 5 0;
#X connect 5 0 7 1;
#X connect 5 0 19 1;
#X connect 6 0 3 0;
#X connect 7 0 2 1;
#X connect 8 0 9 0;
#X connect 8 1 4 0;
#X connect 9 0 10 0;
#X connect 10 0 1 1;
#X connect 10 0 17 1;
#X connect 11 0 12 0;
#X connect 13 0 20 0;
#X connect 13 0 34 0;
#X connect 13 1 22 0;
#X connect 13 1 35 0;
#X connect 14 0 16 0;
#X connect 15 0 38 0;
#X connect 16 0 11 0;
#X connect 17 0 18 0;
#X connect 18 0 0 1;
#X connect 19 0 18 1;
#X connect 24 0 1 0;
#X connect 25 0 17 0;
#X connect 26 0 7 0;
#X connect 27 0 19 0;
#X connect 28 0 15 0;
#X connect 29 0 32 0;
#X connect 30 0 15 0;
#X connect 31 0 16 0;
#X connect 32 0 30 0;
#X connect 32 0 31 0;
#X connect 34 0 21 0;
#X connect 35 0 23 0;
#X connect 36 0 34 1;
#X connect 36 0 35 1;
#X connect 37 0 36 0;
#X connect 38 0 37 0;
